Jump_normalized_Precision Landing17_filtered_grf
version=1
nRows=30
nColumns=37
inDegrees=yes
endheader
time		1_ground_force_vx		1_ground_force_vy		1_ground_force_vz		1_ground_force_px		1_ground_force_py		1_ground_force_pz		1_ground_torque_x		1_ground_torque_y		1_ground_torque_z		2_ground_force_vx		2_ground_force_vy		2_ground_force_vz		2_ground_force_px		2_ground_force_py		2_ground_force_pz		2_ground_torque_x		2_ground_torque_y		2_ground_torque_z		3_ground_force_vx		3_ground_force_vy		3_ground_force_vz		3_ground_force_px		3_ground_force_py		3_ground_force_pz		3_ground_torque_x		3_ground_torque_y		3_ground_torque_z		4_ground_force_vx		4_ground_force_vy		4_ground_force_vz		4_ground_force_px		4_ground_force_py		4_ground_force_pz		4_ground_torque_x		4_ground_torque_y		4_ground_torque_z		
0.448667		-0.000000		0.000000		0.000000		0.080263		0.000000		0.311382		0.000000		0.000000		-0.000000		0.000000		0.000000		0.000000		-0.141987		0.000000		0.397500		0.000000		-0.000000		0.000000		-18.359161		498.589286		33.761296		0.353000		1.254243		1.892787		0.835757		-22.697104		-1.536902		5.058883		517.269235		30.921452		-0.289603		1.263965		1.903953		4.965976		28.101232		72.968496		
0.452429		-0.000000		-0.000000		0.000000		0.080263		0.000000		0.311382		-0.000000		0.000000		0.000000		0.000000		-0.000000		0.000000		-0.141987		0.000000		0.397500		0.000000		-0.000000		-0.000000		-18.037091		494.264466		31.241708		0.352974		1.254268		1.892833		0.823672		-22.570815		-1.426666		4.051690		510.754638		27.590751		-0.289586		1.263987		1.903947		4.834870		28.326190		71.999943		
0.456192		-0.000000		-0.000000		-0.000000		0.080263		0.000000		0.311382		-0.000000		-0.000000		0.000000		0.000000		-0.000000		-0.000000		-0.141987		0.000000		0.397500		-0.000000		-0.000000		-0.000000		-17.740963		490.015398		28.819870		0.352960		1.254259		1.892836		0.812520		-22.442248		-1.319922		3.192691		504.307379		24.565935		-0.289579		1.264009		1.903938		4.707201		28.515909		71.048425		
0.459955		-0.000000		-0.000000		-0.000000		0.080263		0.000000		0.311382		-0.000000		-0.000000		0.000000		-0.000000		-0.000000		-0.000000		-0.141987		0.000000		0.397500		-0.000000		0.000000		-0.000000		-17.434416		485.955304		26.419765		0.352970		1.254222		1.892795		0.800661		-22.317098		-1.213305		2.503244		497.931993		21.710848		-0.289578		1.264024		1.903938		4.586537		28.680349		70.109170		
0.463717		0.000000		-0.000000		-0.000000		0.080263		0.000000		0.311382		-0.000000		-0.000000		0.000000		-0.000000		-0.000000		-0.000000		-0.141987		0.000000		0.397500		-0.000000		0.000000		-0.000000		-17.080583		482.163044		23.938277		0.353014		1.254163		1.892705		0.786483		-22.201427		-1.102248		1.919996		491.653978		18.811471		-0.289581		1.264026		1.903961		4.477337		28.845373		69.178016		
0.467480		0.000000		-0.000000		-0.000000		0.080263		0.000000		0.311382		-0.000000		-0.000000		0.000000		-0.000000		-0.000000		-0.000000		-0.141987		0.000000		0.397500		-0.000000		0.000000		-0.000000		-16.674283		478.667970		21.325768		0.353079		1.254100		1.892597		0.769866		-22.100517		-0.984629		1.336587		485.560046		15.649448		-0.289583		1.264015		1.904004		4.378085		29.047369		68.259538		
0.471242		0.000000		0.000000		0.000000		0.080263		0.000000		0.311382		0.000000		0.000000		-0.000000		-0.000000		0.000000		-0.000000		-0.141987		0.000000		0.397500		-0.000000		0.000000		0.000000		-16.263296		475.477868		18.539797		0.353145		1.254056		1.892504		0.753167		-22.019788		-0.858592		0.675543		479.797786		12.100098		-0.289579		1.263998		1.904068		4.287456		29.317951		67.370585		
0.475005		0.000000		0.000000		0.000000		0.080263		0.000000		0.311382		0.000000		0.000000		-0.000000		0.000000		0.000000		0.000000		-0.141987		0.000000		0.397500		0.000000		-0.000000		0.000000		-15.923234		472.597695		15.553606		0.353194		1.254033		1.892448		0.740041		-21.964228		-0.722862		-0.074950		474.518894		8.170670		-0.289568		1.263984		1.904141		4.197799		29.672737		66.533370		
0.478768		0.000000		0.000000		0.000000		0.080263		0.000000		0.311382		0.000000		0.000000		-0.000000		0.000000		0.000000		0.000000		-0.141987		0.000000		0.397500		0.000000		-0.000000		0.000000		-15.719281		470.063133		12.366932		0.353212		1.254040		1.892445		0.733602		-21.937350		-0.577148		-0.869141		469.831616		3.963746		-0.289554		1.263980		1.904213		4.102674		30.111174		65.767105		
0.482530		-0.000000		0.000000		0.000000		0.080263		0.000000		0.311382		0.000000		0.000000		-0.000000		0.000000		0.000000		0.000000		-0.141987		0.000000		0.397500		0.000000		-0.000000		0.000000		-15.695380		467.936888		8.964324		0.353210		1.254060		1.892473		0.735878		-21.939224		-0.420291		-1.635853		465.761426		-0.338737		-0.289539		1.263987		1.904277		4.001341		30.615224		65.082698		
0.486293		-0.000000		-0.000000		-0.000000		0.080263		0.000000		0.311382		-0.000000		-0.000000		0.000000		0.000000		-0.000000		0.000000		-0.141987		0.000000		0.397500		0.000000		-0.000000		-0.000000		-15.879596		466.295427		5.401359		0.353202		1.254081		1.892513		0.748083		-21.967018		-0.254452		-2.318699		462.285610		-4.552628		-0.289526		1.264003		1.904331		3.891991		31.162862		64.484059		
0.490056		-0.000000		-0.000000		-0.000000		0.080263		0.000000		0.311382		-0.000000		-0.000000		0.000000		-0.000000		-0.000000		-0.000000		-0.141987		0.000000		0.397500		-0.000000		-0.000000		-0.000000		-16.282190		465.177206		1.770469		0.353206		1.254090		1.892545		0.770546		-22.014259		-0.083785		-2.906721		459.338370		-8.551855		-0.289515		1.264019		1.904377		3.783589		31.735183		63.964948		
0.493818		-0.000000		-0.000000		-0.000000		0.080263		0.000000		0.311382		-0.000000		-0.000000		0.000000		-0.000000		-0.000000		-0.000000		-0.141987		0.000000		0.397500		-0.000000		0.000000		-0.000000		-16.886728		464.560487		-1.813618		0.353232		1.254083		1.892563		0.802340		-22.072684		0.086173		-3.436563		456.829373		-12.304158		-0.289502		1.264030		1.904418		3.684197		32.320201		63.511263		
0.497581		0.000000		-0.000000		-0.000000		0.080263		0.000000		0.311382		-0.000000		-0.000000		0.000000		-0.000000		-0.000000		-0.000000		-0.141987		0.000000		0.397500		-0.000000		0.000000		-0.000000		-17.643868		464.346830		-5.216905		0.353269		1.254070		1.892583		0.841044		-22.134355		0.248679		-3.963826		454.621397		-15.885780		-0.289486		1.264033		1.904459		3.602175		32.912744		63.098262		
0.501343		0.000000		0.000000		0.000000		0.080263		0.000000		0.311382		0.000000		-0.000000		-0.000000		-0.000000		0.000000		-0.000000		-0.141987		0.000000		0.397500		-0.000000		0.000000		0.000000		-18.502381		464.402246		-8.352863		0.353291		1.254067		1.892630		0.884244		-22.194145		0.399191		-4.520505		452.536367		-19.424511		-0.289461		1.264027		1.904501		3.544128		33.511196		62.693854		
0.505106		0.000000		0.000000		0.000000		0.080263		0.000000		0.311382		0.000000		0.000000		-0.000000		-0.000000		0.000000		0.000000		-0.141987		0.000000		0.397500		0.000000		0.000000		0.000000		-19.432922		464.603277		-11.276236		0.353278		1.254087		1.892721		0.930677		-22.250661		0.540039		-5.095284		450.377207		-22.996876		-0.289430		1.264018		1.904544		3.505699		34.108288		62.266287		
0.508869		0.000000		0.000000		0.000000		0.080263		0.000000		0.311382		0.000000		0.000000		-0.000000		0.000000		0.000000		0.000000		-0.141987		0.000000		0.397500		0.000000		-0.000000		0.000000		-20.423383		464.874184		-14.109131		0.353208		1.254143		1.892875		0.979928		-22.304990		0.676967		-5.649252		447.951596		-26.620897		-0.289393		1.264007		1.904589		-0.389218		30.862545		-1.834108		
0.512631		-0.000000		0.000000		0.000000		0.080263		0.000000		0.311382		0.000000		0.000000		-0.000000		0.000000		0.000000		0.000000		-0.141987		0.000000		0.397500		0.000000		-0.000000		0.000000		-21.442027		465.185212		-17.143646		0.353098		1.254221		1.893067		1.030616		-22.359241		0.824015		-6.127801		445.065889		-30.227975		-0.289355		1.263996		1.904634		-0.425230		30.884660		-2.097630		
0.516394		-0.000000		-0.000000		0.000000		0.080263		0.000000		0.311382		0.000000		0.000000		0.000000		0.000000		-0.000000		0.000000		-0.141987		0.000000		0.397500		0.000000		-0.000000		-0.000000		-22.432751		465.537436		-20.621514		0.352971		1.254307		1.893273		1.080199		-22.416914		0.992984		-6.475833		441.505376		-33.729984		-0.289317		1.263990		1.904675		-0.452548		30.853560		-2.357145		
0.520157		-0.000000		-0.000000		-0.000000		0.080263		0.000000		0.311382		-0.000000		-0.000000		0.000000		0.000000		-0.000000		-0.000000		-0.141987		0.000000		0.397500		-0.000000		-0.000000		-0.000000		-23.319687		465.929886		-24.683006		0.352863		1.254386		1.893460		1.125252		-22.482655		1.191039		-6.659705		437.041827		-37.060294		-0.289282		1.263989		1.904711		-0.468523		30.746715		-2.607268		
0.523919		-0.000000		-0.000000		-0.000000		0.080263		0.000000		0.311382		-0.000000		-0.000000		0.000000		-0.000000		-0.000000		-0.000000		-0.141987		0.000000		0.397500		-0.000000		0.000000		-0.000000		-24.036904		466.326887		-29.311925		0.352804		1.254456		1.893609		1.162833		-22.559483		1.418024		-6.685683		431.482483		-40.160051		-0.289248		1.263997		1.904741		-0.473272		30.544135		-2.842886		
0.527682		0.000000		-0.000000		-0.000000		0.080263		0.000000		0.311382		-0.000000		-0.000000		0.000000		-0.000000		-0.000000		-0.000000		-0.141987		0.000000		0.397500		-0.000000		0.000000		-0.000000		-24.555939		466.651690		-34.255891		0.352793		1.254531		1.893739		1.191646		-22.645586		1.662367		-6.600859		424.718390		-42.982104		-0.289214		1.264011		1.904767		-0.469899		30.234644		-3.059795		
0.531444		0.000000		-0.000000		-0.000000		0.080263		0.000000		0.311382		-0.000000		-0.000000		0.000000		-0.000000		-0.000000		-0.000000		-0.141987		0.000000		0.397500		-0.000000		0.000000		-0.000000		-24.901700		466.797921		-39.227186		0.352820		1.254626		1.893868		1.212727		-22.733310		1.910386		-6.469368		416.772945		-45.482624		-0.289184		1.264033		1.904791		-0.462866		29.819025		-3.254166		
0.535207		0.000000		0.000000		0.000000		0.080263		0.000000		0.311382		0.000000		0.000000		-0.000000		-0.000000		0.000000		-0.000000		-0.141987		0.000000		0.397500		-0.000000		0.000000		0.000000		-25.130071		466.665038		-43.929791		0.352849		1.254733		1.894008		1.228460		-22.812489		2.147471		-6.352427		407.770709		-47.612096		-0.289164		1.264059		1.904813		-0.456529		29.305195		-3.421735		
0.538970		0.000000		0.000000		0.000000		0.080263		0.000000		0.311382		0.000000		0.000000		-0.000000		0.000000		0.000000		0.000000		-0.141987		0.000000		0.397500		0.000000		-0.000000		0.000000		-25.289071		466.181486		-48.172884		0.352843		1.254823		1.894155		1.240850		-22.873951		2.363682		-6.294390		397.879931		-49.373157		-0.289159		1.264088		1.904837		-0.454079		28.703129		-3.561789		
0.542732		0.000000		0.000000		0.000000		0.080263		0.000000		0.311382		0.000000		0.000000		-0.000000		0.000000		0.000000		0.000000		-0.141987		0.000000		0.397500		0.000000		-0.000000		0.000000		-25.388679		465.275009		-51.972281		0.352775		1.254865		1.894297		1.250136		-22.910101		2.559113		-6.300666		387.199566		-50.802265		-0.289164		1.264118		1.904859		-0.455903		28.016949		-3.675948		
0.546495		-0.000000		0.000000		0.000000		0.080263		0.000000		0.311382		0.000000		0.000000		-0.000000		0.000000		0.000000		0.000000		-0.141987		0.000000		0.397500		0.000000		-0.000000		0.000000		-25.368789		463.857415		-55.435457		0.352621		1.254829		1.894419		1.253260		-22.915322		2.738603		-6.320831		375.718554		-51.955930		-0.289173		1.264147		1.904883		-0.458339		27.244232		-3.767447		
0.550258		-0.000000		-0.000000		-0.000000		0.080263		0.000000		0.311382		-0.000000		0.000000		0.000000		0.000000		-0.000000		0.000000		-0.141987		0.000000		0.397500		0.000000		-0.000000		-0.000000		-25.151382		461.773606		-58.852685		0.352408		1.254731		1.894521		1.246380		-22.883239		2.916453		-6.257758		363.288041		-52.863881		-0.289174		1.264173		1.904904		-0.454282		26.372934		-3.837660		
0.554020		-0.000000		-0.000000		-0.000000		0.080263		0.000000		0.311382		-0.000000		-0.000000		0.000000		-0.000000		-0.000000		-0.000000		-0.141987		0.000000		0.397500		-0.000000		-0.000000		-0.000000		-24.683577		458.867062		-62.438115		0.352169		1.254596		1.894604		1.226896		-22.807963		3.103483		-6.017812		349.692747		-53.499868		-0.289162		1.264193		1.904918		-0.436853		25.385361		-3.883734		
0.557783		-0.000000		-0.000000		-0.000000		0.080263		0.000000		0.311382		-0.000000		-0.000000		0.000000		-0.000000		-0.000000		-0.000000		-0.141987		0.000000		0.397500		-0.000000		0.000000		-0.000000		-24.018135		454.990806		-66.343773		0.351962		1.254476		1.894672		1.197266		-22.680576		3.307136		-5.565819		334.669952		-53.780034		-0.289139		1.264212		1.904921		3.185430		32.090546		44.470610		
